<svg data-reactroot="" style="user-select: none; display: block; font-family: arial; height: 150px; width: 985px;"><style>
          .force-bar-axis path {
            fill: none;
            opacity: 0.4;
          }
          .force-bar-axis paths {
            display: none;
          }
          .tick line {
            stroke: #000;
            stroke-width: 1px;
            opacity: 0.4;
          }
          .tick text {
            fill: #000;
            opacity: 0.5;
            font-size: 12px;
            padding: 0px;
          }</style><g><g transform="translate(0,50)" class="force-bar-axis" fill="none" font-size="10" font-family="sans-serif" text-anchor="middle"><path class="domain" stroke="#000" d="M0.5,0V0.5H985.5V0"></path><g class="tick" opacity="1" transform="translate(55.85016129646118,0)"><line stroke="#000" y2="4" x1="0.5" x2="0.5"></line><text fill="#000" y="-14" x="0.5" dy="0.71em">0.1042</text></g><g class="tick" opacity="1" transform="translate(143.18012903716894,0)"><line stroke="#000" y2="4" x1="0.5" x2="0.5"></line><text fill="#000" y="-14" x="0.5" dy="0.71em">0.161</text></g><g class="tick" opacity="1" transform="translate(230.51009677787673,0)"><line stroke="#000" y2="4" x1="0.5" x2="0.5"></line><text fill="#000" y="-14" x="0.5" dy="0.71em">0.2403</text></g><g class="tick" opacity="1" transform="translate(317.8400645185845,0)"><line stroke="#000" y2="4" x1="0.5" x2="0.5"></line><text fill="#000" y="-14" x="0.5" dy="0.71em">0.3428</text></g><g class="tick" opacity="1" transform="translate(405.1700322592922,0)"><line stroke="#000" y2="4" x1="0.5" x2="0.5"></line><text fill="#000" y="-14" x="0.5" dy="0.71em">0.4623</text></g><g class="tick" opacity="1" transform="translate(492.5,0)"><line stroke="#000" y2="4" x1="0.5" x2="0.5"></line><text fill="#000" y="-14" x="0.5" dy="0.71em">0.5864</text></g><g class="tick" opacity="1" transform="translate(579.8299677407078,0)"><line stroke="#000" y2="4" x1="0.5" x2="0.5"></line><text fill="#000" y="-14" x="0.5" dy="0.71em">0.7004</text></g><g class="tick" opacity="1" transform="translate(667.1599354814156,0)"><line stroke="#000" y2="4" x1="0.5" x2="0.5"></line><text fill="#000" y="-14" x="0.5" dy="0.71em">0.794</text></g><g class="tick" opacity="1" transform="translate(754.4899032221233,0)"><line stroke="#000" y2="4" x1="0.5" x2="0.5"></line><text fill="#000" y="-14" x="0.5" dy="0.71em">0.864</text></g><g class="tick" opacity="1" transform="translate(841.819870962831,0)"><line stroke="#000" y2="4" x1="0.5" x2="0.5"></line><text fill="#000" y="-14" x="0.5" dy="0.71em">0.9129</text></g><g class="tick" opacity="1" transform="translate(929.1498387035389,0)"><line stroke="#000" y2="4" x1="0.5" x2="0.5"></line><text fill="#000" y="-14" x="0.5" dy="0.71em">0.9453</text></g></g><path class="force-bar-blocks" d="M489.51585393516757,56L490.6690870268683,56L494.6690870268683,64.5L490.6690870268683,73L489.51585393516757,73L493.51585393516757,64.5" fill="rgb(117, 72, 94)"></path><path class="force-bar-blocks" d="M490.6690870268683,56L493.0542653773651,56L497.0542653773651,64.5L493.0542653773651,73L490.6690870268683,73L494.6690870268683,64.5" fill="rgb(117, 72, 94)"></path><path class="force-bar-blocks" d="M493.0542653773651,56L498.7914560052845,56L502.7914560052845,64.5L498.7914560052845,73L493.0542653773651,73L497.0542653773651,64.5" fill="rgb(117, 72, 94)"></path><path class="force-bar-blocks" d="M498.7914560052845,56L508.02801013315127,56L512.0280101331513,64.5L508.02801013315127,73L498.7914560052845,73L502.7914560052845,64.5" fill="rgb(117, 72, 94)"></path><path class="force-bar-blocks" d="M508.02801013315127,56L527.8163956702533,56L531.8163956702533,64.5L527.8163956702533,73L508.02801013315127,73L512.0280101331513,64.5" fill="rgb(117, 72, 94)"></path><path class="force-bar-blocks" d="M527.8163956702533,56L549.6218003665512,56L553.6218003665512,64.5L549.6218003665512,73L527.8163956702533,73L531.8163956702533,64.5" fill="rgb(117, 72, 94)"></path><path class="force-bar-blocks" d="M549.6218003665513,56L576.4068124385543,56L580.4068124385543,64.5L576.4068124385543,73L549.6218003665513,73L553.6218003665513,64.5" fill="rgb(117, 72, 94)"></path><path class="force-bar-blocks" d="M576.4068124385542,56L609.8829947093212,56L613.8829947093212,64.5L609.8829947093212,73L576.4068124385542,73L580.4068124385542,64.5" fill="rgb(117, 72, 94)"></path><path class="force-bar-blocks" d="M609.8829947093212,56L648.7732983202396,56L652.7732983202396,64.5L648.7732983202396,73L609.8829947093212,73L613.8829947093212,64.5" fill="rgb(117, 72, 94)"></path><path class="force-bar-blocks" d="M648.7732983202397,56L730.6135664360302,56L734.6135664360302,64.5L730.6135664360302,73L648.7732983202397,73L652.7732983202397,64.5" fill="rgb(117, 72, 94)"></path><path class="force-bar-blocks" d="M730.6135664360302,56L817.849187268501,56L817.849187268501,64.5L817.849187268501,73L730.6135664360302,73L734.6135664360302,64.5" fill="rgb(117, 72, 94)"></path><path class="force-bar-blocks" d="M817.8491872685009,56L820.8333333333334,56L816.8333333333334,64.5L820.8333333333334,73L817.8491872685009,73L817.8491872685009,64.5" fill="rgb(81, 163, 163)"></path><path class="force-bar-labelBacking" stroke="none" opacity="0.2" d="M527.8163956702533,73L278.7991956608349,83L278.7991956608349,104L145.96585978437008,104L145.96585978437008,83L508.02801013315127,73" fill="url(#linear-backgrad-0)"></path><path class="force-bar-labelBacking" stroke="none" opacity="0.2" d="M549.6218003665513,73L362.4991926090771,83L362.4991926090771,104L278.7991956608349,104L278.7991956608349,83L527.8163956702533,73" fill="url(#linear-backgrad-0)"></path><path class="force-bar-labelBacking" stroke="none" opacity="0.2" d="M576.4068124385542,73L474.115861310249,83L474.115861310249,104L362.4991926090771,104L362.4991926090771,83L549.6218003665513,73" fill="url(#linear-backgrad-0)"></path><path class="force-bar-labelBacking" stroke="none" opacity="0.2" d="M609.8829947093212,73L575.682526959663,83L575.682526959663,104L474.115861310249,104L474.115861310249,83L576.4068124385542,73" fill="url(#linear-backgrad-0)"></path><path class="force-bar-labelBacking" stroke="none" opacity="0.2" d="M648.7732983202396,73L641.5158590214306,83L641.5158590214306,104L575.682526959663,104L575.682526959663,83L609.8829947093212,73" fill="url(#linear-backgrad-0)"></path><path class="force-bar-labelBacking" stroke="none" opacity="0.2" d="M730.6135664360302,73L729.6825231449658,83L729.6825231449658,104L641.5158590214306,104L641.5158590214306,83L648.7732983202397,73" fill="url(#linear-backgrad-0)"></path><path class="force-bar-labelBacking" stroke="none" opacity="0.2" d="M817.8491872685009,73L817.8491872685009,83L817.8491872685009,104L729.6825231449658,104L729.6825231449658,83L730.6135664360302,73" fill="url(#linear-backgrad-0)"></path><rect class="force-bar-labelDividers" height="21px" width="1px" y="83" x="278.2991956608349" fill="url(#linear-grad-0)"></rect><rect class="force-bar-labelDividers" height="21px" width="1px" y="83" x="361.9991926090771" fill="url(#linear-grad-0)"></rect><rect class="force-bar-labelDividers" height="21px" width="1px" y="83" x="473.615861310249" fill="url(#linear-grad-0)"></rect><rect class="force-bar-labelDividers" height="21px" width="1px" y="83" x="575.182526959663" fill="url(#linear-grad-0)"></rect><rect class="force-bar-labelDividers" height="21px" width="1px" y="83" x="641.0158590214306" fill="url(#linear-grad-0)"></rect><rect class="force-bar-labelDividers" height="21px" width="1px" y="83" x="729.1825231449658" fill="url(#linear-grad-0)"></rect><line class="force-bar-labelLinks" y1="73" y2="83" stroke-opacity="0.5" stroke-width="1" x1="527.8163956702533" x2="278.7991956608349" stroke="rgb(117, 72, 94)"></line><line class="force-bar-labelLinks" y1="73" y2="83" stroke-opacity="0.5" stroke-width="1" x1="549.6218003665513" x2="362.4991926090771" stroke="rgb(117, 72, 94)"></line><line class="force-bar-labelLinks" y1="73" y2="83" stroke-opacity="0.5" stroke-width="1" x1="576.4068124385542" x2="474.115861310249" stroke="rgb(117, 72, 94)"></line><line class="force-bar-labelLinks" y1="73" y2="83" stroke-opacity="0.5" stroke-width="1" x1="609.8829947093212" x2="575.682526959663" stroke="rgb(117, 72, 94)"></line><line class="force-bar-labelLinks" y1="73" y2="83" stroke-opacity="0.5" stroke-width="1" x1="648.7732983202396" x2="641.5158590214306" stroke="rgb(117, 72, 94)"></line><line class="force-bar-labelLinks" y1="73" y2="83" stroke-opacity="0.5" stroke-width="1" x1="730.6135664360302" x2="729.6825231449658" stroke="rgb(117, 72, 94)"></line><path class="force-bar-blockDividers" stroke-width="2" fill="none" d="M490.6690870268683,56L494.6690870268683,64.5L490.6690870268683,73" stroke="rgb(181, 136, 158)"></path><path class="force-bar-blockDividers" stroke-width="2" fill="none" d="M493.0542653773651,56L497.0542653773651,64.5L493.0542653773651,73" stroke="rgb(181, 136, 158)"></path><path class="force-bar-blockDividers" stroke-width="2" fill="none" d="M498.7914560052845,56L502.7914560052845,64.5L498.7914560052845,73" stroke="rgb(181, 136, 158)"></path><path class="force-bar-blockDividers" stroke-width="2" fill="none" d="M508.02801013315127,56L512.0280101331513,64.5L508.02801013315127,73" stroke="rgb(181, 136, 158)"></path><path class="force-bar-blockDividers" stroke-width="2" fill="none" d="M527.8163956702533,56L531.8163956702533,64.5L527.8163956702533,73" stroke="rgb(181, 136, 158)"></path><path class="force-bar-blockDividers" stroke-width="2" fill="none" d="M549.6218003665513,56L553.6218003665513,64.5L549.6218003665513,73" stroke="rgb(181, 136, 158)"></path><path class="force-bar-blockDividers" stroke-width="2" fill="none" d="M576.4068124385542,56L580.4068124385542,64.5L576.4068124385542,73" stroke="rgb(181, 136, 158)"></path><path class="force-bar-blockDividers" stroke-width="2" fill="none" d="M609.8829947093212,56L613.8829947093212,64.5L609.8829947093212,73" stroke="rgb(181, 136, 158)"></path><path class="force-bar-blockDividers" stroke-width="2" fill="none" d="M648.7732983202396,56L652.7732983202396,64.5L648.7732983202396,73" stroke="rgb(181, 136, 158)"></path><path class="force-bar-blockDividers" stroke-width="2" fill="none" d="M730.6135664360302,56L734.6135664360302,64.5L730.6135664360302,73" stroke="rgb(181, 136, 158)"></path><path class="force-bar-blockDividers" stroke-width="2" fill="none" d="M817.8491872685009,56L821.8491872685009,64.5L817.8491872685009,73" stroke="#rgba(0,0,0,0)"></path></g><g><text class="force-bar-labels" font-size="12px" y="98" fill="rgb(117, 72, 94)" stroke="none" x="212.3825277226025" text-anchor="middle">Respiratory protein = 1</text><text class="force-bar-labels" font-size="12px" y="98" fill="rgb(117, 72, 94)" stroke="none" x="320.649194134956" text-anchor="middle">Body size = 2</text><text class="force-bar-labels" font-size="12px" y="98" fill="rgb(117, 72, 94)" stroke="none" x="418.30752695966305" text-anchor="middle">Carbonate load = 1</text><text class="force-bar-labels" font-size="12px" y="98" fill="rgb(117, 72, 94)" stroke="none" x="524.899194134956" text-anchor="middle">Reproduction = 1</text><text class="force-bar-labels" font-size="12px" y="98" fill="rgb(117, 72, 94)" stroke="none" x="608.5991929905468" text-anchor="middle">Motility = 5</text><text class="force-bar-labels" font-size="12px" y="98" fill="rgb(117, 72, 94)" stroke="none" x="685.5991910831982" text-anchor="middle">Mineralogy = 6</text><text class="force-bar-labels" font-size="12px" y="98" fill="rgb(117, 72, 94)" stroke="none" x="773.7658552067334" text-anchor="middle">Physiology = 3</text></g><text x="492.5" y="28" text-anchor="middle" font-size="12" fill="#000" opacity="0.5">base value</text><line x1="817.8491872685009" x2="817.8491872685009" y1="50" y2="56" stroke="#F2F2F2" stroke-width="1" opacity="1"></line><text x="817.8491872685009" y="45" color="#fff" text-anchor="middle" font-weight="bold" stroke="#fff" stroke-width="6" opacity="1">0.90</text><text x="817.8491872685009" y="45" text-anchor="middle" font-weight="bold" fill="#000" opacity="1">0.90</text><text x="801.8491872685009" y="12" text-anchor="end" font-size="13" fill="rgb(117, 72, 94)" opacity="1">higher</text><text x="824.8491872685009" y="8" text-anchor="end" font-size="13" fill="rgb(117, 72, 94)" opacity="1">→</text><text x="817.8491872685009" y="28" text-anchor="middle" font-size="12" fill="#000" opacity="0.5">Extinction Probability</text><text x="810.8491872685009" y="14" text-anchor="start" font-size="13" fill="rgb(81, 163, 163)" opacity="1">←</text><text x="833.8491872685009" y="12" text-anchor="start" font-size="13" fill="rgb(81, 163, 163)" opacity="1">lower</text><text x="10" y="20" text-anchor="middle" font-size="12" stroke="#fff" fill="#fff" stroke-width="4" stroke-linejoin="round" opacity="0"></text><text x="10" y="20" text-anchor="middle" font-size="12" fill="#0f0" opacity="0"></text><linearGradient id="linear-grad-0" x1="0%" y1="0%" x2="0%" y2="100%"><stop offset="0%" stop-color="rgb(117, 72, 94)" stop-opacity="0.6"></stop><stop offset="100%" stop-color="rgb(117, 72, 94)" stop-opacity="0"></stop></linearGradient><linearGradient id="linear-backgrad-0" x1="0%" y1="0%" x2="0%" y2="100%"><stop offset="0%" stop-color="rgb(117, 72, 94)" stop-opacity="0.5"></stop><stop offset="100%" stop-color="rgb(117, 72, 94)" stop-opacity="0"></stop></linearGradient><linearGradient id="linear-grad-1" x1="0%" y1="0%" x2="0%" y2="100%"><stop offset="0%" stop-color="rgb(81, 163, 163)" stop-opacity="0.6"></stop><stop offset="100%" stop-color="rgb(81, 163, 163)" stop-opacity="0"></stop></linearGradient><linearGradient id="linear-backgrad-1" x1="0%" y1="0%" x2="0%" y2="100%"><stop offset="0%" stop-color="rgb(81, 163, 163)" stop-opacity="0.5"></stop><stop offset="100%" stop-color="rgb(81, 163, 163)" stop-opacity="0"></stop></linearGradient></svg>