<svg data-reactroot="" style="user-select: none; display: block; font-family: arial; height: 150px; width: 985px;"><style>
          .force-bar-axis path {
            fill: none;
            opacity: 0.4;
          }
          .force-bar-axis paths {
            display: none;
          }
          .tick line {
            stroke: #000;
            stroke-width: 1px;
            opacity: 0.4;
          }
          .tick text {
            fill: #000;
            opacity: 0.5;
            font-size: 12px;
            padding: 0px;
          }</style><g><g transform="translate(0,50)" class="force-bar-axis" fill="none" font-size="10" font-family="sans-serif" text-anchor="middle"><path class="domain" stroke="#000" d="M0.5,0V0.5H985.5V0"></path><g class="tick" opacity="1" transform="translate(66.32639817495198,0)"><line stroke="#000" y2="4" x1="0.5" x2="0.5"></line><text fill="#000" y="-14" x="0.5" dy="0.71em">0.02531</text></g><g class="tick" opacity="1" transform="translate(172.86979863121397,0)"><line stroke="#000" y2="4" x1="0.5" x2="0.5"></line><text fill="#000" y="-14" x="0.5" dy="0.71em">0.06593</text></g><g class="tick" opacity="1" transform="translate(279.413199087476,0)"><line stroke="#000" y2="4" x1="0.5" x2="0.5"></line><text fill="#000" y="-14" x="0.5" dy="0.71em">0.161</text></g><g class="tick" opacity="1" transform="translate(385.956599543738,0)"><line stroke="#000" y2="4" x1="0.5" x2="0.5"></line><text fill="#000" y="-14" x="0.5" dy="0.71em">0.3428</text></g><g class="tick" opacity="1" transform="translate(492.5,0)"><line stroke="#000" y2="4" x1="0.5" x2="0.5"></line><text fill="#000" y="-14" x="0.5" dy="0.71em">0.5864</text></g><g class="tick" opacity="1" transform="translate(599.043400456262,0)"><line stroke="#000" y2="4" x1="0.5" x2="0.5"></line><text fill="#000" y="-14" x="0.5" dy="0.71em">0.794</text></g><g class="tick" opacity="1" transform="translate(705.586800912524,0)"><line stroke="#000" y2="4" x1="0.5" x2="0.5"></line><text fill="#000" y="-14" x="0.5" dy="0.71em">0.9129</text></g><g class="tick" opacity="1" transform="translate(812.1302013687861,0)"><line stroke="#000" y2="4" x1="0.5" x2="0.5"></line><text fill="#000" y="-14" x="0.5" dy="0.71em">0.9661</text></g><g class="tick" opacity="1" transform="translate(918.6736018250479,0)"><line stroke="#000" y2="4" x1="0.5" x2="0.5"></line><text fill="#000" y="-14" x="0.5" dy="0.71em">0.9872</text></g></g><path class="force-bar-blocks" d="M164.16666666666663,56L167.14764550677378,56L167.14764550677378,64.5L167.14764550677378,73L164.16666666666663,73L168.16666666666663,64.5" fill="rgb(117, 72, 94)"></path><path class="force-bar-blocks" d="M167.14764550677378,56L253.3422633519161,56L249.3422633519161,64.5L253.3422633519161,73L167.14764550677378,73L167.14764550677378,64.5" fill="rgb(81, 163, 163)"></path><path class="force-bar-blocks" d="M253.3422633519161,56L309.37629202606746,56L305.37629202606746,64.5L309.37629202606746,73L253.3422633519161,73L249.3422633519161,64.5" fill="rgb(81, 163, 163)"></path><path class="force-bar-blocks" d="M309.37629202606746,56L345.24201417621015,56L341.24201417621015,64.5L345.24201417621015,73L309.37629202606746,73L305.37629202606746,64.5" fill="rgb(81, 163, 163)"></path><path class="force-bar-blocks" d="M345.2420141762101,56L378.207414691541,56L374.207414691541,64.5L378.207414691541,73L345.2420141762101,73L341.2420141762101,64.5" fill="rgb(81, 163, 163)"></path><path class="force-bar-blocks" d="M378.20741469154103,56L401.0859372758772,56L397.0859372758772,64.5L401.0859372758772,73L378.20741469154103,73L374.20741469154103,64.5" fill="rgb(81, 163, 163)"></path><path class="force-bar-blocks" d="M401.0859372758772,56L421.68647900609244,56L417.68647900609244,64.5L421.68647900609244,73L401.0859372758772,73L397.0859372758772,64.5" fill="rgb(81, 163, 163)"></path><path class="force-bar-blocks" d="M421.6864790060925,56L441.325392035561,56L437.325392035561,64.5L441.325392035561,73L421.6864790060925,73L417.6864790060925,64.5" fill="rgb(81, 163, 163)"></path><path class="force-bar-blocks" d="M441.325392035561,56L460.70118138820834,56L456.70118138820834,64.5L460.70118138820834,73L441.325392035561,73L437.325392035561,64.5" fill="rgb(81, 163, 163)"></path><path class="force-bar-blocks" d="M460.7011813882084,56L477.68766589279795,56L473.68766589279795,64.5L477.68766589279795,73L460.7011813882084,73L456.7011813882084,64.5" fill="rgb(81, 163, 163)"></path><path class="force-bar-blocks" d="M477.68766589279795,56L487.69691139141923,56L483.69691139141923,64.5L487.69691139141923,73L477.68766589279795,73L473.68766589279795,64.5" fill="rgb(81, 163, 163)"></path><path class="force-bar-blocks" d="M487.6969113914192,56L495.48097884010707,56L491.48097884010707,64.5L495.48097884010707,73L487.6969113914192,73L483.6969113914192,64.5" fill="rgb(81, 163, 163)"></path><path class="force-bar-labelBacking" stroke="none" opacity="0.2" d="M253.34226335191613,73L253.34226335191613,83L253.34226335191613,104L167.14764550677378,104L167.14764550677378,83L167.14764550677378,73" fill="url(#linear-backgrad-1)"></path><path class="force-bar-labelBacking" stroke="none" opacity="0.2" d="M309.37629202606746,73L341.5089274754513,83L341.5089274754513,104L253.34226335191613,104L253.34226335191613,83L253.3422633519161,73" fill="url(#linear-backgrad-1)"></path><path class="force-bar-labelBacking" stroke="none" opacity="0.2" d="M345.24201417621015,73L438.6089259495724,83L438.6089259495724,104L341.5089274754513,104L341.5089274754513,83L309.37629202606746,73" fill="url(#linear-backgrad-1)"></path><path class="force-bar-labelBacking" stroke="none" opacity="0.2" d="M378.20741469154103,73L522.3089228978146,83L522.3089228978146,104L438.6089259495724,104L438.6089259495724,83L345.2420141762101,73" fill="url(#linear-backgrad-1)"></path><path class="force-bar-labelBacking" stroke="none" opacity="0.2" d="M401.0859372758772,73L655.1422587742794,83L655.1422587742794,104L522.3089228978146,104L522.3089228978146,83L378.20741469154103,73" fill="url(#linear-backgrad-1)"></path><path class="force-bar-labelBacking" stroke="none" opacity="0.2" d="M421.6864790060925,73L766.7589274754513,83L766.7589274754513,104L655.1422587742793,104L655.1422587742793,83L401.0859372758772,73" fill="url(#linear-backgrad-1)"></path><path class="force-bar-labelBacking" stroke="none" opacity="0.2" d="M441.325392035561,73L832.5922595372188,83L832.5922595372188,104L766.7589274754512,104L766.7589274754512,83L421.6864790060925,73" fill="url(#linear-backgrad-1)"></path><path class="force-bar-labelBacking" stroke="none" opacity="0.2" d="M460.70118138820834,73L920.758923660754,83L920.758923660754,104L832.5922595372189,104L832.5922595372189,83L441.325392035561,73" fill="url(#linear-backgrad-1)"></path><path class="force-bar-labelBacking" stroke="none" opacity="0.2" d="M477.68766589279795,73L1029.0255938878047,83L1029.0255938878047,104L920.7589236607539,104L920.7589236607539,83L460.7011813882084,73" fill="url(#linear-backgrad-1)"></path><rect class="force-bar-labelDividers" height="21px" width="1px" y="83" x="252.84226335191613" fill="url(#linear-grad-1)"></rect><rect class="force-bar-labelDividers" height="21px" width="1px" y="83" x="341.0089274754513" fill="url(#linear-grad-1)"></rect><rect class="force-bar-labelDividers" height="21px" width="1px" y="83" x="438.1089259495724" fill="url(#linear-grad-1)"></rect><rect class="force-bar-labelDividers" height="21px" width="1px" y="83" x="521.8089228978146" fill="url(#linear-grad-1)"></rect><rect class="force-bar-labelDividers" height="21px" width="1px" y="83" x="654.6422587742794" fill="url(#linear-grad-1)"></rect><rect class="force-bar-labelDividers" height="21px" width="1px" y="83" x="766.2589274754513" fill="url(#linear-grad-1)"></rect><rect class="force-bar-labelDividers" height="21px" width="1px" y="83" x="832.0922595372188" fill="url(#linear-grad-1)"></rect><rect class="force-bar-labelDividers" height="21px" width="1px" y="83" x="920.258923660754" fill="url(#linear-grad-1)"></rect><line class="force-bar-labelLinks" y1="73" y2="83" stroke-opacity="0.5" stroke-width="1" x1="253.34226335191613" x2="253.34226335191613" stroke="rgb(81, 163, 163)"></line><line class="force-bar-labelLinks" y1="73" y2="83" stroke-opacity="0.5" stroke-width="1" x1="309.37629202606746" x2="341.5089274754513" stroke="rgb(81, 163, 163)"></line><line class="force-bar-labelLinks" y1="73" y2="83" stroke-opacity="0.5" stroke-width="1" x1="345.24201417621015" x2="438.6089259495724" stroke="rgb(81, 163, 163)"></line><line class="force-bar-labelLinks" y1="73" y2="83" stroke-opacity="0.5" stroke-width="1" x1="378.20741469154103" x2="522.3089228978146" stroke="rgb(81, 163, 163)"></line><line class="force-bar-labelLinks" y1="73" y2="83" stroke-opacity="0.5" stroke-width="1" x1="401.0859372758772" x2="655.1422587742794" stroke="rgb(81, 163, 163)"></line><line class="force-bar-labelLinks" y1="73" y2="83" stroke-opacity="0.5" stroke-width="1" x1="421.6864790060925" x2="766.7589274754513" stroke="rgb(81, 163, 163)"></line><line class="force-bar-labelLinks" y1="73" y2="83" stroke-opacity="0.5" stroke-width="1" x1="441.325392035561" x2="832.5922595372188" stroke="rgb(81, 163, 163)"></line><line class="force-bar-labelLinks" y1="73" y2="83" stroke-opacity="0.5" stroke-width="1" x1="460.70118138820834" x2="920.758923660754" stroke="rgb(81, 163, 163)"></line><path class="force-bar-blockDividers" stroke-width="2" fill="none" d="M167.14764550677378,56L171.14764550677378,64.5L167.14764550677378,73" stroke="#rgba(0,0,0,0)"></path><path class="force-bar-blockDividers" stroke-width="2" fill="none" d="M253.34226335191613,56L249.34226335191613,64.5L253.34226335191613,73" stroke="rgb(203, 229, 229)"></path><path class="force-bar-blockDividers" stroke-width="2" fill="none" d="M309.37629202606746,56L305.37629202606746,64.5L309.37629202606746,73" stroke="rgb(203, 229, 229)"></path><path class="force-bar-blockDividers" stroke-width="2" fill="none" d="M345.24201417621015,56L341.24201417621015,64.5L345.24201417621015,73" stroke="rgb(203, 229, 229)"></path><path class="force-bar-blockDividers" stroke-width="2" fill="none" d="M378.20741469154103,56L374.20741469154103,64.5L378.20741469154103,73" stroke="rgb(203, 229, 229)"></path><path class="force-bar-blockDividers" stroke-width="2" fill="none" d="M401.0859372758772,56L397.0859372758772,64.5L401.0859372758772,73" stroke="rgb(203, 229, 229)"></path><path class="force-bar-blockDividers" stroke-width="2" fill="none" d="M421.6864790060925,56L417.6864790060925,64.5L421.6864790060925,73" stroke="rgb(203, 229, 229)"></path><path class="force-bar-blockDividers" stroke-width="2" fill="none" d="M441.325392035561,56L437.325392035561,64.5L441.325392035561,73" stroke="rgb(203, 229, 229)"></path><path class="force-bar-blockDividers" stroke-width="2" fill="none" d="M460.70118138820834,56L456.70118138820834,64.5L460.70118138820834,73" stroke="rgb(203, 229, 229)"></path><path class="force-bar-blockDividers" stroke-width="2" fill="none" d="M477.68766589279795,56L473.68766589279795,64.5L477.68766589279795,73" stroke="rgb(203, 229, 229)"></path><path class="force-bar-blockDividers" stroke-width="2" fill="none" d="M487.69691139141923,56L483.69691139141923,64.5L487.69691139141923,73" stroke="rgb(203, 229, 229)"></path></g><g><text class="force-bar-labels" font-size="12px" y="98" fill="rgb(81, 163, 163)" stroke="none" x="210.24495442934494" text-anchor="middle">Motility = 3</text><text class="force-bar-labels" font-size="12px" y="98" fill="rgb(81, 163, 163)" stroke="none" x="297.4255954136837" text-anchor="middle">Mineralogy = 5</text><text class="force-bar-labels" font-size="12px" y="98" fill="rgb(81, 163, 163)" stroke="none" x="390.05892671251183" text-anchor="middle"># of species = 3</text><text class="force-bar-labels" font-size="12px" y="98" fill="rgb(81, 163, 163)" stroke="none" x="480.4589244236935" text-anchor="middle">Body size = 3</text><text class="force-bar-labels" font-size="12px" y="98" fill="rgb(81, 163, 163)" stroke="none" x="588.725590836047" text-anchor="middle">Respiratory protein = 4</text><text class="force-bar-labels" font-size="12px" y="98" fill="rgb(81, 163, 163)" stroke="none" x="710.9505931248652" text-anchor="middle">Carbonate load = 1</text><text class="force-bar-labels" font-size="12px" y="98" fill="rgb(81, 163, 163)" stroke="none" x="799.675593506335" text-anchor="middle">Tiering = 4</text><text class="force-bar-labels" font-size="12px" y="98" fill="rgb(81, 163, 163)" stroke="none" x="876.6755915989864" text-anchor="middle">Physiology = 3</text><text class="force-bar-labels" font-size="12px" y="98" fill="rgb(81, 163, 163)" stroke="none" x="974.8922587742793" text-anchor="middle">Ornamentation = 1</text><text class="force-bar-labels" font-size="12px" y="98" fill="rgb(81, 163, 163)" stroke="none" x="1079.2505923619258" text-anchor="middle">Habitat depth = 1</text></g><text x="492.5" y="28" text-anchor="middle" font-size="12" fill="#000" opacity="0.5">base value</text><line x1="167.14764550677378" x2="167.14764550677378" y1="50" y2="56" stroke="#F2F2F2" stroke-width="1" opacity="1"></line><text x="167.14764550677378" y="45" color="#fff" text-anchor="middle" font-weight="bold" stroke="#fff" stroke-width="6" opacity="1">0.06</text><text x="167.14764550677378" y="45" text-anchor="middle" font-weight="bold" fill="#000" opacity="1">0.06</text><text x="151.14764550677378" y="12" text-anchor="end" font-size="13" fill="rgb(117, 72, 94)" opacity="1">higher</text><text x="174.14764550677378" y="8" text-anchor="end" font-size="13" fill="rgb(117, 72, 94)" opacity="1">→</text><text x="167.14764550677378" y="28" text-anchor="middle" font-size="12" fill="#000" opacity="0.5">Extinction Probability</text><text x="160.14764550677378" y="14" text-anchor="start" font-size="13" fill="rgb(81, 163, 163)" opacity="1">←</text><text x="183.14764550677378" y="12" text-anchor="start" font-size="13" fill="rgb(81, 163, 163)" opacity="1">lower</text><text x="10" y="20" text-anchor="middle" font-size="12" stroke="#fff" fill="#fff" stroke-width="4" stroke-linejoin="round"></text><text x="10" y="20" text-anchor="middle" font-size="12" fill="#0f0"></text><linearGradient id="linear-grad-0" x1="0%" y1="0%" x2="0%" y2="100%"><stop offset="0%" stop-color="rgb(117, 72, 94)" stop-opacity="0.6"></stop><stop offset="100%" stop-color="rgb(117, 72, 94)" stop-opacity="0"></stop></linearGradient><linearGradient id="linear-backgrad-0" x1="0%" y1="0%" x2="0%" y2="100%"><stop offset="0%" stop-color="rgb(117, 72, 94)" stop-opacity="0.5"></stop><stop offset="100%" stop-color="rgb(117, 72, 94)" stop-opacity="0"></stop></linearGradient><linearGradient id="linear-grad-1" x1="0%" y1="0%" x2="0%" y2="100%"><stop offset="0%" stop-color="rgb(81, 163, 163)" stop-opacity="0.6"></stop><stop offset="100%" stop-color="rgb(81, 163, 163)" stop-opacity="0"></stop></linearGradient><linearGradient id="linear-backgrad-1" x1="0%" y1="0%" x2="0%" y2="100%"><stop offset="0%" stop-color="rgb(81, 163, 163)" stop-opacity="0.5"></stop><stop offset="100%" stop-color="rgb(81, 163, 163)" stop-opacity="0"></stop></linearGradient></svg>