<svg data-reactroot="" style="user-select: none; display: block; font-family: arial; height: 150px; width: 985px;"><style>
          .force-bar-axis path {
            fill: none;
            opacity: 0.4;
          }
          .force-bar-axis paths {
            display: none;
          }
          .tick line {
            stroke: #000;
            stroke-width: 1px;
            opacity: 0.4;
          }
          .tick text {
            fill: #000;
            opacity: 0.5;
            font-size: 12px;
            padding: 0px;
          }</style><g><g transform="translate(0,50)" class="force-bar-axis" fill="none" font-size="10" font-family="sans-serif" text-anchor="middle"><path class="domain" stroke="#000" d="M0.5,0V0.5H985.5V0"></path><g class="tick" opacity="1" transform="translate(121.89426167670575,0)"><line stroke="#000" y2="4" x1="0.5" x2="0.5"></line><text fill="#000" y="-14" x="0.5" dy="0.71em">0.2403</text></g><g class="tick" opacity="1" transform="translate(245.4295077844705,0)"><line stroke="#000" y2="4" x1="0.5" x2="0.5"></line><text fill="#000" y="-14" x="0.5" dy="0.71em">0.3428</text></g><g class="tick" opacity="1" transform="translate(368.96475389223525,0)"><line stroke="#000" y2="4" x1="0.5" x2="0.5"></line><text fill="#000" y="-14" x="0.5" dy="0.71em">0.4623</text></g><g class="tick" opacity="1" transform="translate(492.5,0)"><line stroke="#000" y2="4" x1="0.5" x2="0.5"></line><text fill="#000" y="-14" x="0.5" dy="0.71em">0.5864</text></g><g class="tick" opacity="1" transform="translate(616.0352461077647,0)"><line stroke="#000" y2="4" x1="0.5" x2="0.5"></line><text fill="#000" y="-14" x="0.5" dy="0.71em">0.7004</text></g><g class="tick" opacity="1" transform="translate(739.5704922155295,0)"><line stroke="#000" y2="4" x1="0.5" x2="0.5"></line><text fill="#000" y="-14" x="0.5" dy="0.71em">0.794</text></g><g class="tick" opacity="1" transform="translate(863.1057383232942,0)"><line stroke="#000" y2="4" x1="0.5" x2="0.5"></line><text fill="#000" y="-14" x="0.5" dy="0.71em">0.864</text></g></g><path class="force-bar-blocks" d="M443.992407533343,56L444.95500918434306,56L448.95500918434306,64.5L444.95500918434306,73L443.992407533343,73L447.992407533343,64.5" fill="rgb(117, 72, 94)"></path><path class="force-bar-blocks" d="M444.95500918434306,56L449.43306325364836,56L453.43306325364836,64.5L449.43306325364836,73L444.95500918434306,73L448.95500918434306,64.5" fill="rgb(117, 72, 94)"></path><path class="force-bar-blocks" d="M449.4330632536483,56L459.0910418976506,56L463.0910418976506,64.5L459.0910418976506,73L449.4330632536483,73L453.4330632536483,64.5" fill="rgb(117, 72, 94)"></path><path class="force-bar-blocks" d="M459.09104189765065,56L473.26294861968915,56L477.26294861968915,64.5L473.26294861968915,73L459.09104189765065,73L463.09104189765065,64.5" fill="rgb(117, 72, 94)"></path><path class="force-bar-blocks" d="M473.26294861968915,56L517.4099034443765,56L521.4099034443765,64.5L517.4099034443765,73L473.26294861968915,73L477.26294861968915,64.5" fill="rgb(117, 72, 94)"></path><path class="force-bar-blocks" d="M517.4099034443765,56L569.4463732157315,56L573.4463732157315,64.5L569.4463732157315,73L517.4099034443765,73L521.4099034443765,64.5" fill="rgb(117, 72, 94)"></path><path class="force-bar-blocks" d="M569.4463732157315,56L661.4042541236245,56L665.4042541236245,64.5L661.4042541236245,73L569.4463732157315,73L573.4463732157315,64.5" fill="rgb(117, 72, 94)"></path><path class="force-bar-blocks" d="M661.4042541236245,56L772.3257408666764,56L772.3257408666764,64.5L772.3257408666764,73L661.4042541236245,73L665.4042541236245,64.5" fill="rgb(117, 72, 94)"></path><path class="force-bar-blocks" d="M772.3257408666764,56L796.4470764562753,56L792.4470764562753,64.5L796.4470764562753,73L772.3257408666764,73L772.3257408666764,64.5" fill="rgb(81, 163, 163)"></path><path class="force-bar-blocks" d="M796.4470764562752,56L810.1129596329536,56L806.1129596329536,64.5L810.1129596329536,73L796.4470764562752,73L792.4470764562752,64.5" fill="rgb(81, 163, 163)"></path><path class="force-bar-blocks" d="M810.1129596329536,56L819.4715980107345,56L815.4715980107345,64.5L819.4715980107345,73L810.1129596329536,73L806.1129596329536,64.5" fill="rgb(81, 163, 163)"></path><path class="force-bar-blocks" d="M819.4715980107345,56L820.8333333333334,56L816.8333333333334,64.5L820.8333333333334,73L819.4715980107345,73L815.4715980107345,64.5" fill="rgb(81, 163, 163)"></path><path class="force-bar-labelBacking" stroke="none" opacity="0.2" d="M473.26294861968915,73L402.0463755045498,83L402.0463755045498,104L290.42970680337794,104L290.42970680337794,83L459.09104189765065,73" fill="url(#linear-backgrad-0)"></path><path class="force-bar-labelBacking" stroke="none" opacity="0.2" d="M517.4099034443765,73L503.6130411539639,83L503.6130411539639,104L402.0463755045498,104L402.0463755045498,83L473.26294861968915,73" fill="url(#linear-backgrad-0)"></path><path class="force-bar-labelBacking" stroke="none" opacity="0.2" d="M569.4463732157315,73L569.4463732157315,83L569.4463732157315,104L503.6130411539639,104L503.6130411539639,83L517.4099034443765,73" fill="url(#linear-backgrad-0)"></path><path class="force-bar-labelBacking" stroke="none" opacity="0.2" d="M661.4042541236245,73L661.4042541236245,83L661.4042541236245,104L569.4463732157315,104L569.4463732157315,83L569.4463732157315,73" fill="url(#linear-backgrad-0)"></path><path class="force-bar-labelBacking" stroke="none" opacity="0.2" d="M772.3257408666764,73L772.3257408666764,83L772.3257408666764,104L661.4042541236245,104L661.4042541236245,83L661.4042541236245,73" fill="url(#linear-backgrad-0)"></path><path class="force-bar-labelBacking" stroke="none" opacity="0.2" d="M796.4470764562752,73L838.159072928444,83L838.159072928444,104L772.3257408666764,104L772.3257408666764,83L772.3257408666764,73" fill="url(#linear-backgrad-1)"></path><path class="force-bar-labelBacking" stroke="none" opacity="0.2" d="M810.1129596329536,73L911.8090744543229,83L911.8090744543229,104L838.159072928444,104L838.159072928444,83L796.4470764562752,73" fill="url(#linear-backgrad-1)"></path><rect class="force-bar-labelDividers" height="21px" width="1px" y="83" x="401.5463755045498" fill="url(#linear-grad-0)"></rect><rect class="force-bar-labelDividers" height="21px" width="1px" y="83" x="503.1130411539639" fill="url(#linear-grad-0)"></rect><rect class="force-bar-labelDividers" height="21px" width="1px" y="83" x="568.9463732157315" fill="url(#linear-grad-0)"></rect><rect class="force-bar-labelDividers" height="21px" width="1px" y="83" x="660.9042541236245" fill="url(#linear-grad-0)"></rect><rect class="force-bar-labelDividers" height="21px" width="1px" y="83" x="771.8257408666764" fill="url(#linear-grad-0)"></rect><rect class="force-bar-labelDividers" height="21px" width="1px" y="83" x="837.659072928444" fill="url(#linear-grad-1)"></rect><line class="force-bar-labelLinks" y1="73" y2="83" stroke-opacity="0.5" stroke-width="1" x1="473.26294861968915" x2="402.0463755045498" stroke="rgb(117, 72, 94)"></line><line class="force-bar-labelLinks" y1="73" y2="83" stroke-opacity="0.5" stroke-width="1" x1="517.4099034443765" x2="503.6130411539639" stroke="rgb(117, 72, 94)"></line><line class="force-bar-labelLinks" y1="73" y2="83" stroke-opacity="0.5" stroke-width="1" x1="569.4463732157315" x2="569.4463732157315" stroke="rgb(117, 72, 94)"></line><line class="force-bar-labelLinks" y1="73" y2="83" stroke-opacity="0.5" stroke-width="1" x1="661.4042541236245" x2="661.4042541236245" stroke="rgb(117, 72, 94)"></line><line class="force-bar-labelLinks" y1="73" y2="83" stroke-opacity="0.5" stroke-width="1" x1="772.3257408666764" x2="772.3257408666764" stroke="rgb(117, 72, 94)"></line><line class="force-bar-labelLinks" y1="73" y2="83" stroke-opacity="0.5" stroke-width="1" x1="796.4470764562752" x2="838.159072928444" stroke="rgb(81, 163, 163)"></line><path class="force-bar-blockDividers" stroke-width="2" fill="none" d="M444.95500918434306,56L448.95500918434306,64.5L444.95500918434306,73" stroke="rgb(181, 136, 158)"></path><path class="force-bar-blockDividers" stroke-width="2" fill="none" d="M449.4330632536483,56L453.4330632536483,64.5L449.4330632536483,73" stroke="rgb(181, 136, 158)"></path><path class="force-bar-blockDividers" stroke-width="2" fill="none" d="M459.09104189765065,56L463.09104189765065,64.5L459.09104189765065,73" stroke="rgb(181, 136, 158)"></path><path class="force-bar-blockDividers" stroke-width="2" fill="none" d="M473.26294861968915,56L477.26294861968915,64.5L473.26294861968915,73" stroke="rgb(181, 136, 158)"></path><path class="force-bar-blockDividers" stroke-width="2" fill="none" d="M517.4099034443765,56L521.4099034443765,64.5L517.4099034443765,73" stroke="rgb(181, 136, 158)"></path><path class="force-bar-blockDividers" stroke-width="2" fill="none" d="M569.4463732157315,56L573.4463732157315,64.5L569.4463732157315,73" stroke="rgb(181, 136, 158)"></path><path class="force-bar-blockDividers" stroke-width="2" fill="none" d="M661.4042541236245,56L665.4042541236245,64.5L661.4042541236245,73" stroke="rgb(181, 136, 158)"></path><path class="force-bar-blockDividers" stroke-width="2" fill="none" d="M772.3257408666764,56L776.3257408666764,64.5L772.3257408666764,73" stroke="#rgba(0,0,0,0)"></path><path class="force-bar-blockDividers" stroke-width="2" fill="none" d="M796.4470764562752,56L792.4470764562752,64.5L796.4470764562752,73" stroke="rgb(203, 229, 229)"></path><path class="force-bar-blockDividers" stroke-width="2" fill="none" d="M810.1129596329536,56L806.1129596329536,64.5L810.1129596329536,73" stroke="rgb(203, 229, 229)"></path><path class="force-bar-blockDividers" stroke-width="2" fill="none" d="M819.4715980107344,56L815.4715980107344,64.5L819.4715980107344,73" stroke="rgb(203, 229, 229)"></path></g><g><text class="force-bar-labels" font-size="12px" y="98" fill="rgb(117, 72, 94)" stroke="none" x="346.2380411539639" text-anchor="middle">Carbonate load = 1</text><text class="force-bar-labels" font-size="12px" y="98" fill="rgb(117, 72, 94)" stroke="none" x="452.82970832925685" text-anchor="middle">Reproduction = 1</text><text class="force-bar-labels" font-size="12px" y="98" fill="rgb(117, 72, 94)" stroke="none" x="536.5297071848477" text-anchor="middle">Motility = 5</text><text class="force-bar-labels" font-size="12px" y="98" fill="rgb(117, 72, 94)" stroke="none" x="615.425313669678" text-anchor="middle">Physiology = 3</text><text class="force-bar-labels" font-size="12px" y="98" fill="rgb(117, 72, 94)" stroke="none" x="716.8649974951504" text-anchor="middle">Mineralogy = 6</text><text class="force-bar-labels" font-size="12px" y="98" fill="rgb(81, 163, 163)" stroke="none" x="805.2424068975602" text-anchor="middle">Tiering = 2</text><text class="force-bar-labels" font-size="12px" y="98" fill="rgb(81, 163, 163)" stroke="none" x="874.9840736913834" text-anchor="middle">Phylum = 11</text></g><text x="492.5" y="28" text-anchor="middle" font-size="12" fill="#000" opacity="0.5">base value</text><line x1="772.3257408666764" x2="772.3257408666764" y1="50" y2="56" stroke="#F2F2F2" stroke-width="1" opacity="1"></line><text x="772.3257408666764" y="45" color="#fff" text-anchor="middle" font-weight="bold" stroke="#fff" stroke-width="6" opacity="1">0.81</text><text x="772.3257408666764" y="45" text-anchor="middle" font-weight="bold" fill="#000" opacity="1">0.81</text><text x="756.3257408666764" y="12" text-anchor="end" font-size="13" fill="rgb(117, 72, 94)" opacity="1">higher</text><text x="779.3257408666764" y="8" text-anchor="end" font-size="13" fill="rgb(117, 72, 94)" opacity="1">→</text><text x="772.3257408666764" y="28" text-anchor="middle" font-size="12" fill="#000" opacity="0.5">Extinction Probability</text><text x="765.3257408666764" y="14" text-anchor="start" font-size="13" fill="rgb(81, 163, 163)" opacity="1">←</text><text x="788.3257408666764" y="12" text-anchor="start" font-size="13" fill="rgb(81, 163, 163)" opacity="1">lower</text><text x="10" y="20" text-anchor="middle" font-size="12" stroke="#fff" fill="#fff" stroke-width="4" stroke-linejoin="round" opacity="0"></text><text x="10" y="20" text-anchor="middle" font-size="12" fill="#0f0" opacity="0"></text><linearGradient id="linear-grad-0" x1="0%" y1="0%" x2="0%" y2="100%"><stop offset="0%" stop-color="rgb(117, 72, 94)" stop-opacity="0.6"></stop><stop offset="100%" stop-color="rgb(117, 72, 94)" stop-opacity="0"></stop></linearGradient><linearGradient id="linear-backgrad-0" x1="0%" y1="0%" x2="0%" y2="100%"><stop offset="0%" stop-color="rgb(117, 72, 94)" stop-opacity="0.5"></stop><stop offset="100%" stop-color="rgb(117, 72, 94)" stop-opacity="0"></stop></linearGradient><linearGradient id="linear-grad-1" x1="0%" y1="0%" x2="0%" y2="100%"><stop offset="0%" stop-color="rgb(81, 163, 163)" stop-opacity="0.6"></stop><stop offset="100%" stop-color="rgb(81, 163, 163)" stop-opacity="0"></stop></linearGradient><linearGradient id="linear-backgrad-1" x1="0%" y1="0%" x2="0%" y2="100%"><stop offset="0%" stop-color="rgb(81, 163, 163)" stop-opacity="0.5"></stop><stop offset="100%" stop-color="rgb(81, 163, 163)" stop-opacity="0"></stop></linearGradient></svg>