<svg data-reactroot="" style="user-select: none; display: block; font-family: arial; height: 150px; width: 985px;"><style>
          .force-bar-axis path {
            fill: none;
            opacity: 0.4;
          }
          .force-bar-axis paths {
            display: none;
          }
          .tick line {
            stroke: #000;
            stroke-width: 1px;
            opacity: 0.4;
          }
          .tick text {
            fill: #000;
            opacity: 0.5;
            font-size: 12px;
            padding: 0px;
          }</style><g><g transform="translate(0,50)" class="force-bar-axis" fill="none" font-size="10" font-family="sans-serif" text-anchor="middle"><path class="domain" stroke="#000" d="M0.5,0V0.5H985.5V0"></path><g class="tick" opacity="1" transform="translate(44.14390792266374,0)"><line stroke="#000" y2="4" x1="0.5" x2="0.5"></line><text fill="#000" y="-14" x="0.5" dy="0.71em">0.3428</text></g><g class="tick" opacity="1" transform="translate(133.815126338131,0)"><line stroke="#000" y2="4" x1="0.5" x2="0.5"></line><text fill="#000" y="-14" x="0.5" dy="0.71em">0.3891</text></g><g class="tick" opacity="1" transform="translate(223.48634475359827,0)"><line stroke="#000" y2="4" x1="0.5" x2="0.5"></line><text fill="#000" y="-14" x="0.5" dy="0.71em">0.4376</text></g><g class="tick" opacity="1" transform="translate(313.15756316906555,0)"><line stroke="#000" y2="4" x1="0.5" x2="0.5"></line><text fill="#000" y="-14" x="0.5" dy="0.71em">0.4873</text></g><g class="tick" opacity="1" transform="translate(402.82878158453275,0)"><line stroke="#000" y2="4" x1="0.5" x2="0.5"></line><text fill="#000" y="-14" x="0.5" dy="0.71em">0.5372</text></g><g class="tick" opacity="1" transform="translate(492.5,0)"><line stroke="#000" y2="4" x1="0.5" x2="0.5"></line><text fill="#000" y="-14" x="0.5" dy="0.71em">0.5864</text></g><g class="tick" opacity="1" transform="translate(582.1712184154674,0)"><line stroke="#000" y2="4" x1="0.5" x2="0.5"></line><text fill="#000" y="-14" x="0.5" dy="0.71em">0.6339</text></g><g class="tick" opacity="1" transform="translate(671.8424368309346,0)"><line stroke="#000" y2="4" x1="0.5" x2="0.5"></line><text fill="#000" y="-14" x="0.5" dy="0.71em">0.679</text></g><g class="tick" opacity="1" transform="translate(761.5136552464019,0)"><line stroke="#000" y2="4" x1="0.5" x2="0.5"></line><text fill="#000" y="-14" x="0.5" dy="0.71em">0.7209</text></g><g class="tick" opacity="1" transform="translate(851.184873661869,0)"><line stroke="#000" y2="4" x1="0.5" x2="0.5"></line><text fill="#000" y="-14" x="0.5" dy="0.71em">0.7593</text></g><g class="tick" opacity="1" transform="translate(940.8560920773363,0)"><line stroke="#000" y2="4" x1="0.5" x2="0.5"></line><text fill="#000" y="-14" x="0.5" dy="0.71em">0.794</text></g></g><path class="force-bar-blocks" d="M164.16666666666669,56L165.33954806354907,56L169.33954806354907,64.5L165.33954806354907,73L164.16666666666669,73L168.16666666666669,64.5" fill="rgb(117, 72, 94)"></path><path class="force-bar-blocks" d="M165.33954806354907,56L176.3140319815171,56L180.3140319815171,64.5L176.3140319815171,73L165.33954806354907,73L169.33954806354907,64.5" fill="rgb(117, 72, 94)"></path><path class="force-bar-blocks" d="M176.3140319815171,56L211.40492844068376,56L215.40492844068376,64.5L211.40492844068376,73L176.3140319815171,73L180.3140319815171,64.5" fill="rgb(117, 72, 94)"></path><path class="force-bar-blocks" d="M211.4049284406838,56L250.96485089840888,56L254.96485089840888,64.5L250.96485089840888,73L211.4049284406838,73L215.4049284406838,64.5" fill="rgb(117, 72, 94)"></path><path class="force-bar-blocks" d="M250.96485089840888,56L311.44654019134515,56L315.44654019134515,64.5L311.44654019134515,73L250.96485089840888,73L254.96485089840888,64.5" fill="rgb(117, 72, 94)"></path><path class="force-bar-blocks" d="M311.4465401913452,56L396.16480859818637,56L396.16480859818637,64.5L396.16480859818637,73L311.4465401913452,73L315.4465401913452,64.5" fill="rgb(117, 72, 94)"></path><path class="force-bar-blocks" d="M396.16480859818626,56L577.8552544371055,56L573.8552544371055,64.5L577.8552544371055,73L396.16480859818626,73L396.16480859818626,64.5" fill="rgb(81, 163, 163)"></path><path class="force-bar-blocks" d="M577.8552544371056,56L635.872729057908,56L631.872729057908,64.5L635.872729057908,73L577.8552544371056,73L573.8552544371056,64.5" fill="rgb(81, 163, 163)"></path><path class="force-bar-blocks" d="M635.8727290579081,56L675.8956922361801,56L671.8956922361801,64.5L675.8956922361801,73L635.8727290579081,73L631.8727290579081,64.5" fill="rgb(81, 163, 163)"></path><path class="force-bar-blocks" d="M675.89569223618,56L709.7956421055209,56L705.7956421055209,64.5L709.7956421055209,73L675.89569223618,73L671.89569223618,64.5" fill="rgb(81, 163, 163)"></path><path class="force-bar-blocks" d="M709.795642105521,56L723.9490596533608,56L719.9490596533608,64.5L723.9490596533608,73L709.795642105521,73L705.795642105521,64.5" fill="rgb(81, 163, 163)"></path><path class="force-bar-blocks" d="M723.9490596533608,56L724.4981419315197,56L720.4981419315197,64.5L724.4981419315197,73L723.9490596533608,73L719.9490596533608,64.5" fill="rgb(81, 163, 163)"></path><path class="force-bar-labelBacking" stroke="none" opacity="0.2" d="M211.40492844068376,73L158.46481546464136,83L158.46481546464136,104L56.8981498152273,104L56.8981498152273,83L176.3140319815171,73" fill="url(#linear-backgrad-0)"></path><path class="force-bar-labelBacking" stroke="none" opacity="0.2" d="M250.96485089840888,73L242.16481241288358,83L242.16481241288358,104L158.4648154646414,104L158.4648154646414,83L211.4049284406838,73" fill="url(#linear-backgrad-0)"></path><path class="force-bar-labelBacking" stroke="none" opacity="0.2" d="M311.44654019134515,73L307.9981444746511,83L307.9981444746511,104L242.16481241288355,104L242.16481241288355,83L250.96485089840888,73" fill="url(#linear-backgrad-0)"></path><path class="force-bar-labelBacking" stroke="none" opacity="0.2" d="M396.1648085981863,73L396.16480859818637,83L396.16480859818637,104L307.9981444746512,104L307.9981444746512,83L311.4465401913452,73" fill="url(#linear-backgrad-0)"></path><path class="force-bar-labelBacking" stroke="none" opacity="0.2" d="M577.8552544371055,73L577.8552544371055,83L577.8552544371055,104L396.16480859818626,104L396.16480859818626,83L396.16480859818626,73" fill="url(#linear-backgrad-1)"></path><path class="force-bar-labelBacking" stroke="none" opacity="0.2" d="M635.8727290579081,73L643.6885864988731,83L643.6885864988731,104L577.8552544371055,104L577.8552544371055,83L577.8552544371056,73" fill="url(#linear-backgrad-1)"></path><path class="force-bar-labelBacking" stroke="none" opacity="0.2" d="M675.89569223618,73L751.9552567259241,83L751.9552567259241,104L643.6885864988732,104L643.6885864988732,83L635.8727290579081,73" fill="url(#linear-backgrad-1)"></path><path class="force-bar-labelBacking" stroke="none" opacity="0.2" d="M709.795642105521,73L840.121920849459,83L840.121920849459,104L751.9552567259238,104L751.9552567259238,83L675.89569223618,73" fill="url(#linear-backgrad-1)"></path><path class="force-bar-labelBacking" stroke="none" opacity="0.2" d="M723.9490596533608,73L972.9552567259238,83L972.9552567259238,104L840.121920849459,104L840.121920849459,83L709.795642105521,73" fill="url(#linear-backgrad-1)"></path><rect class="force-bar-labelDividers" height="21px" width="1px" y="83" x="157.96481546464136" fill="url(#linear-grad-0)"></rect><rect class="force-bar-labelDividers" height="21px" width="1px" y="83" x="241.66481241288358" fill="url(#linear-grad-0)"></rect><rect class="force-bar-labelDividers" height="21px" width="1px" y="83" x="307.4981444746511" fill="url(#linear-grad-0)"></rect><rect class="force-bar-labelDividers" height="21px" width="1px" y="83" x="395.66480859818637" fill="url(#linear-grad-0)"></rect><rect class="force-bar-labelDividers" height="21px" width="1px" y="83" x="577.3552544371055" fill="url(#linear-grad-1)"></rect><rect class="force-bar-labelDividers" height="21px" width="1px" y="83" x="643.1885864988731" fill="url(#linear-grad-1)"></rect><rect class="force-bar-labelDividers" height="21px" width="1px" y="83" x="751.4552567259241" fill="url(#linear-grad-1)"></rect><rect class="force-bar-labelDividers" height="21px" width="1px" y="83" x="839.621920849459" fill="url(#linear-grad-1)"></rect><line class="force-bar-labelLinks" y1="73" y2="83" stroke-opacity="0.5" stroke-width="1" x1="211.40492844068376" x2="158.46481546464136" stroke="rgb(117, 72, 94)"></line><line class="force-bar-labelLinks" y1="73" y2="83" stroke-opacity="0.5" stroke-width="1" x1="250.96485089840888" x2="242.16481241288358" stroke="rgb(117, 72, 94)"></line><line class="force-bar-labelLinks" y1="73" y2="83" stroke-opacity="0.5" stroke-width="1" x1="311.44654019134515" x2="307.9981444746511" stroke="rgb(117, 72, 94)"></line><line class="force-bar-labelLinks" y1="73" y2="83" stroke-opacity="0.5" stroke-width="1" x1="396.1648085981863" x2="396.16480859818637" stroke="rgb(117, 72, 94)"></line><line class="force-bar-labelLinks" y1="73" y2="83" stroke-opacity="0.5" stroke-width="1" x1="577.8552544371055" x2="577.8552544371055" stroke="rgb(81, 163, 163)"></line><line class="force-bar-labelLinks" y1="73" y2="83" stroke-opacity="0.5" stroke-width="1" x1="635.8727290579081" x2="643.6885864988731" stroke="rgb(81, 163, 163)"></line><line class="force-bar-labelLinks" y1="73" y2="83" stroke-opacity="0.5" stroke-width="1" x1="675.89569223618" x2="751.9552567259241" stroke="rgb(81, 163, 163)"></line><line class="force-bar-labelLinks" y1="73" y2="83" stroke-opacity="0.5" stroke-width="1" x1="709.795642105521" x2="840.121920849459" stroke="rgb(81, 163, 163)"></line><path class="force-bar-blockDividers" stroke-width="2" fill="none" d="M165.33954806354907,56L169.33954806354907,64.5L165.33954806354907,73" stroke="rgb(181, 136, 158)"></path><path class="force-bar-blockDividers" stroke-width="2" fill="none" d="M176.3140319815171,56L180.3140319815171,64.5L176.3140319815171,73" stroke="rgb(181, 136, 158)"></path><path class="force-bar-blockDividers" stroke-width="2" fill="none" d="M211.40492844068376,56L215.40492844068376,64.5L211.40492844068376,73" stroke="rgb(181, 136, 158)"></path><path class="force-bar-blockDividers" stroke-width="2" fill="none" d="M250.96485089840888,56L254.96485089840888,64.5L250.96485089840888,73" stroke="rgb(181, 136, 158)"></path><path class="force-bar-blockDividers" stroke-width="2" fill="none" d="M311.44654019134515,56L315.44654019134515,64.5L311.44654019134515,73" stroke="rgb(181, 136, 158)"></path><path class="force-bar-blockDividers" stroke-width="2" fill="none" d="M396.1648085981863,56L400.1648085981863,64.5L396.1648085981863,73" stroke="#rgba(0,0,0,0)"></path><path class="force-bar-blockDividers" stroke-width="2" fill="none" d="M577.8552544371055,56L573.8552544371055,64.5L577.8552544371055,73" stroke="rgb(203, 229, 229)"></path><path class="force-bar-blockDividers" stroke-width="2" fill="none" d="M635.8727290579081,56L631.8727290579081,64.5L635.8727290579081,73" stroke="rgb(203, 229, 229)"></path><path class="force-bar-blockDividers" stroke-width="2" fill="none" d="M675.89569223618,56L671.89569223618,64.5L675.89569223618,73" stroke="rgb(203, 229, 229)"></path><path class="force-bar-blockDividers" stroke-width="2" fill="none" d="M709.795642105521,56L705.795642105521,64.5L709.795642105521,73" stroke="rgb(203, 229, 229)"></path><path class="force-bar-blockDividers" stroke-width="2" fill="none" d="M723.9490596533608,56L719.9490596533608,64.5L723.9490596533608,73" stroke="rgb(203, 229, 229)"></path></g><g><text class="force-bar-labels" font-size="12px" y="98" fill="rgb(117, 72, 94)" stroke="none" x="107.68148263993433" text-anchor="middle">Reproduction = 1</text><text class="force-bar-labels" font-size="12px" y="98" fill="rgb(117, 72, 94)" stroke="none" x="200.31481393876248" text-anchor="middle">Body size = 4</text><text class="force-bar-labels" font-size="12px" y="98" fill="rgb(117, 72, 94)" stroke="none" x="275.0814784437673" text-anchor="middle">Motility = 5</text><text class="force-bar-labels" font-size="12px" y="98" fill="rgb(117, 72, 94)" stroke="none" x="352.0814765364188" text-anchor="middle">Physiology = 1</text><text class="force-bar-labels" font-size="12px" y="98" fill="rgb(81, 163, 163)" stroke="none" x="487.01003151764587" text-anchor="middle"># of species = 3</text><text class="force-bar-labels" font-size="12px" y="98" fill="rgb(81, 163, 163)" stroke="none" x="610.7719204679893" text-anchor="middle">Tiering = 2</text><text class="force-bar-labels" font-size="12px" y="98" fill="rgb(81, 163, 163)" stroke="none" x="697.8219216123986" text-anchor="middle">Ornamentation = 2</text><text class="force-bar-labels" font-size="12px" y="98" fill="rgb(81, 163, 163)" stroke="none" x="796.0385887876914" text-anchor="middle">Mineralogy = 3</text><text class="force-bar-labels" font-size="12px" y="98" fill="rgb(81, 163, 163)" stroke="none" x="906.5385887876914" text-anchor="middle">Respiratory protein = 4</text></g><text x="492.5" y="28" text-anchor="middle" font-size="12" fill="#000" opacity="0.5">base value</text><line x1="396.16480859818626" x2="396.16480859818626" y1="50" y2="56" stroke="#F2F2F2" stroke-width="1" opacity="1"></line><text x="396.16480859818626" y="45" color="#fff" text-anchor="middle" font-weight="bold" stroke="#fff" stroke-width="6" opacity="1">0.53</text><text x="396.16480859818626" y="45" text-anchor="middle" font-weight="bold" fill="#000" opacity="1">0.53</text><text x="380.16480859818626" y="12" text-anchor="end" font-size="13" fill="rgb(117, 72, 94)" opacity="1">higher</text><text x="403.16480859818626" y="8" text-anchor="end" font-size="13" fill="rgb(117, 72, 94)" opacity="1">→</text><text x="396.16480859818626" y="28" text-anchor="middle" font-size="12" fill="#000" opacity="0.5">Extinction Probability</text><text x="389.16480859818626" y="14" text-anchor="start" font-size="13" fill="rgb(81, 163, 163)" opacity="1">←</text><text x="412.16480859818626" y="12" text-anchor="start" font-size="13" fill="rgb(81, 163, 163)" opacity="1">lower</text><text x="10" y="20" text-anchor="middle" font-size="12" stroke="#fff" fill="#fff" stroke-width="4" stroke-linejoin="round" opacity="0"></text><text x="10" y="20" text-anchor="middle" font-size="12" fill="#0f0" opacity="0"></text><linearGradient id="linear-grad-0" x1="0%" y1="0%" x2="0%" y2="100%"><stop offset="0%" stop-color="rgb(117, 72, 94)" stop-opacity="0.6"></stop><stop offset="100%" stop-color="rgb(117, 72, 94)" stop-opacity="0"></stop></linearGradient><linearGradient id="linear-backgrad-0" x1="0%" y1="0%" x2="0%" y2="100%"><stop offset="0%" stop-color="rgb(117, 72, 94)" stop-opacity="0.5"></stop><stop offset="100%" stop-color="rgb(117, 72, 94)" stop-opacity="0"></stop></linearGradient><linearGradient id="linear-grad-1" x1="0%" y1="0%" x2="0%" y2="100%"><stop offset="0%" stop-color="rgb(81, 163, 163)" stop-opacity="0.6"></stop><stop offset="100%" stop-color="rgb(81, 163, 163)" stop-opacity="0"></stop></linearGradient><linearGradient id="linear-backgrad-1" x1="0%" y1="0%" x2="0%" y2="100%"><stop offset="0%" stop-color="rgb(81, 163, 163)" stop-opacity="0.5"></stop><stop offset="100%" stop-color="rgb(81, 163, 163)" stop-opacity="0"></stop></linearGradient></svg>