<svg data-reactroot="" style="user-select: none; display: block; font-family: arial; height: 150px; width: 985px;"><style>
          .force-bar-axis path {
            fill: none;
            opacity: 0.4;
          }
          .force-bar-axis paths {
            display: none;
          }
          .tick line {
            stroke: #000;
            stroke-width: 1px;
            opacity: 0.4;
          }
          .tick text {
            fill: #000;
            opacity: 0.5;
            font-size: 12px;
            padding: 0px;
          }</style><g><g transform="translate(0,50)" class="force-bar-axis" fill="none" font-size="10" font-family="sans-serif" text-anchor="middle"><path class="domain" stroke="#000" d="M0.5,0V0.5H985.5V0"></path><g class="tick" opacity="1" transform="translate(95.04779938931004,0)"><line stroke="#000" y2="4" x1="0.5" x2="0.5"></line><text fill="#000" y="-14" x="0.5" dy="0.71em">0.2403</text></g><g class="tick" opacity="1" transform="translate(227.53186625954004,0)"><line stroke="#000" y2="4" x1="0.5" x2="0.5"></line><text fill="#000" y="-14" x="0.5" dy="0.71em">0.3428</text></g><g class="tick" opacity="1" transform="translate(360.01593312977,0)"><line stroke="#000" y2="4" x1="0.5" x2="0.5"></line><text fill="#000" y="-14" x="0.5" dy="0.71em">0.4623</text></g><g class="tick" opacity="1" transform="translate(492.5,0)"><line stroke="#000" y2="4" x1="0.5" x2="0.5"></line><text fill="#000" y="-14" x="0.5" dy="0.71em">0.5864</text></g><g class="tick" opacity="1" transform="translate(624.9840668702301,0)"><line stroke="#000" y2="4" x1="0.5" x2="0.5"></line><text fill="#000" y="-14" x="0.5" dy="0.71em">0.7004</text></g><g class="tick" opacity="1" transform="translate(757.4681337404601,0)"><line stroke="#000" y2="4" x1="0.5" x2="0.5"></line><text fill="#000" y="-14" x="0.5" dy="0.71em">0.794</text></g><g class="tick" opacity="1" transform="translate(889.95220061069,0)"><line stroke="#000" y2="4" x1="0.5" x2="0.5"></line><text fill="#000" y="-14" x="0.5" dy="0.71em">0.864</text></g></g><path class="force-bar-blocks" d="M491.2498384654361,56L494.71059966022483,56L498.71059966022483,64.5L494.71059966022483,73L491.2498384654361,73L495.2498384654361,64.5" fill="rgb(117, 72, 94)"></path><path class="force-bar-blocks" d="M494.71059966022483,56L499.18912025071484,56L503.18912025071484,64.5L499.18912025071484,73L494.71059966022483,73L498.71059966022483,64.5" fill="rgb(117, 72, 94)"></path><path class="force-bar-blocks" d="M499.1891202507149,56L506.82171328244544,56L510.82171328244544,64.5L506.82171328244544,73L499.1891202507149,73L503.1891202507149,64.5" fill="rgb(117, 72, 94)"></path><path class="force-bar-blocks" d="M506.8217132824454,56L515.823443195422,56L519.823443195422,64.5L515.823443195422,73L506.8217132824454,73L510.8217132824454,64.5" fill="rgb(117, 72, 94)"></path><path class="force-bar-blocks" d="M515.823443195422,56L528.9072762746405,56L532.9072762746405,64.5L528.9072762746405,73L515.823443195422,73L519.823443195422,64.5" fill="rgb(117, 72, 94)"></path><path class="force-bar-blocks" d="M528.9072762746406,56L544.8495399786854,56L548.8495399786854,64.5L544.8495399786854,73L528.9072762746406,73L532.9072762746406,64.5" fill="rgb(117, 72, 94)"></path><path class="force-bar-blocks" d="M544.8495399786854,56L563.3482662937192,56L567.3482662937192,64.5L563.3482662937192,73L544.8495399786854,73L548.8495399786854,64.5" fill="rgb(117, 72, 94)"></path><path class="force-bar-blocks" d="M563.3482662937192,56L595.4284429687132,56L599.4284429687132,64.5L595.4284429687132,73L563.3482662937192,73L567.3482662937192,64.5" fill="rgb(117, 72, 94)"></path><path class="force-bar-blocks" d="M595.4284429687132,56L635.9467937754202,56L639.9467937754202,64.5L635.9467937754202,73L595.4284429687132,73L599.4284429687132,64.5" fill="rgb(117, 72, 94)"></path><path class="force-bar-blocks" d="M635.9467937754202,56L722.9751829112389,56L726.9751829112389,64.5L722.9751829112389,73L635.9467937754202,73L639.9467937754202,64.5" fill="rgb(117, 72, 94)"></path><path class="force-bar-blocks" d="M722.9751829112389,56L819.5831717987694,56L819.5831717987694,64.5L819.5831717987694,73L722.9751829112389,73L726.9751829112389,64.5" fill="rgb(117, 72, 94)"></path><path class="force-bar-blocks" d="M819.5831717987694,56L820.8333333333334,56L816.8333333333334,64.5L820.8333333333334,73L819.5831717987694,73L819.5831717987694,64.5" fill="rgb(81, 163, 163)"></path><path class="force-bar-labelBacking" stroke="none" opacity="0.2" d="M528.9072762746406,73L266.5085195506432,83L266.5085195506432,104L178.34185542710804,104L178.34185542710804,83L515.823443195422,73" fill="url(#linear-backgrad-0)"></path><path class="force-bar-labelBacking" stroke="none" opacity="0.2" d="M544.8495399786854,73L374.775189777694,83L374.775189777694,104L266.5085195506432,104L266.5085195506432,83L528.9072762746406,73" fill="url(#linear-backgrad-0)"></path><path class="force-bar-labelBacking" stroke="none" opacity="0.2" d="M563.3482662937192,73L458.47518672593617,83L458.47518672593617,104L374.775189777694,104L374.775189777694,83L544.8495399786854,73" fill="url(#linear-backgrad-0)"></path><path class="force-bar-labelBacking" stroke="none" opacity="0.2" d="M595.4284429687132,73L560.0418523753502,83L560.0418523753502,104L458.47518672593617,104L458.47518672593617,83L563.3482662937192,73" fill="url(#linear-backgrad-0)"></path><path class="force-bar-labelBacking" stroke="none" opacity="0.2" d="M635.9467937754202,73L625.8751844371178,83L625.8751844371178,104L560.0418523753502,104L560.0418523753502,83L595.4284429687132,73" fill="url(#linear-backgrad-0)"></path><path class="force-bar-labelBacking" stroke="none" opacity="0.2" d="M722.9751829112389,73L722.9751829112389,83L722.9751829112389,104L625.8751844371178,104L625.8751844371178,83L635.9467937754202,73" fill="url(#linear-backgrad-0)"></path><path class="force-bar-labelBacking" stroke="none" opacity="0.2" d="M819.5831717987694,73L819.5831717987694,83L819.5831717987694,104L722.9751829112389,104L722.9751829112389,83L722.9751829112389,73" fill="url(#linear-backgrad-0)"></path><rect class="force-bar-labelDividers" height="21px" width="1px" y="83" x="266.0085195506432" fill="url(#linear-grad-0)"></rect><rect class="force-bar-labelDividers" height="21px" width="1px" y="83" x="374.275189777694" fill="url(#linear-grad-0)"></rect><rect class="force-bar-labelDividers" height="21px" width="1px" y="83" x="457.97518672593617" fill="url(#linear-grad-0)"></rect><rect class="force-bar-labelDividers" height="21px" width="1px" y="83" x="559.5418523753502" fill="url(#linear-grad-0)"></rect><rect class="force-bar-labelDividers" height="21px" width="1px" y="83" x="625.3751844371178" fill="url(#linear-grad-0)"></rect><rect class="force-bar-labelDividers" height="21px" width="1px" y="83" x="722.4751829112389" fill="url(#linear-grad-0)"></rect><line class="force-bar-labelLinks" y1="73" y2="83" stroke-opacity="0.5" stroke-width="1" x1="528.9072762746406" x2="266.5085195506432" stroke="rgb(117, 72, 94)"></line><line class="force-bar-labelLinks" y1="73" y2="83" stroke-opacity="0.5" stroke-width="1" x1="544.8495399786854" x2="374.775189777694" stroke="rgb(117, 72, 94)"></line><line class="force-bar-labelLinks" y1="73" y2="83" stroke-opacity="0.5" stroke-width="1" x1="563.3482662937192" x2="458.47518672593617" stroke="rgb(117, 72, 94)"></line><line class="force-bar-labelLinks" y1="73" y2="83" stroke-opacity="0.5" stroke-width="1" x1="595.4284429687132" x2="560.0418523753502" stroke="rgb(117, 72, 94)"></line><line class="force-bar-labelLinks" y1="73" y2="83" stroke-opacity="0.5" stroke-width="1" x1="635.9467937754202" x2="625.8751844371178" stroke="rgb(117, 72, 94)"></line><line class="force-bar-labelLinks" y1="73" y2="83" stroke-opacity="0.5" stroke-width="1" x1="722.9751829112389" x2="722.9751829112389" stroke="rgb(117, 72, 94)"></line><path class="force-bar-blockDividers" stroke-width="2" fill="none" d="M494.71059966022483,56L498.71059966022483,64.5L494.71059966022483,73" stroke="rgb(181, 136, 158)"></path><path class="force-bar-blockDividers" stroke-width="2" fill="none" d="M499.1891202507149,56L503.1891202507149,64.5L499.1891202507149,73" stroke="rgb(181, 136, 158)"></path><path class="force-bar-blockDividers" stroke-width="2" fill="none" d="M506.8217132824454,56L510.8217132824454,64.5L506.8217132824454,73" stroke="rgb(181, 136, 158)"></path><path class="force-bar-blockDividers" stroke-width="2" fill="none" d="M515.823443195422,56L519.823443195422,64.5L515.823443195422,73" stroke="rgb(181, 136, 158)"></path><path class="force-bar-blockDividers" stroke-width="2" fill="none" d="M528.9072762746406,56L532.9072762746406,64.5L528.9072762746406,73" stroke="rgb(181, 136, 158)"></path><path class="force-bar-blockDividers" stroke-width="2" fill="none" d="M544.8495399786854,56L548.8495399786854,64.5L544.8495399786854,73" stroke="rgb(181, 136, 158)"></path><path class="force-bar-blockDividers" stroke-width="2" fill="none" d="M563.3482662937192,56L567.3482662937192,64.5L563.3482662937192,73" stroke="rgb(181, 136, 158)"></path><path class="force-bar-blockDividers" stroke-width="2" fill="none" d="M595.4284429687132,56L599.4284429687132,64.5L595.4284429687132,73" stroke="rgb(181, 136, 158)"></path><path class="force-bar-blockDividers" stroke-width="2" fill="none" d="M635.9467937754202,56L639.9467937754202,64.5L635.9467937754202,73" stroke="rgb(181, 136, 158)"></path><path class="force-bar-blockDividers" stroke-width="2" fill="none" d="M722.9751829112389,56L726.9751829112389,64.5L722.9751829112389,73" stroke="rgb(181, 136, 158)"></path><path class="force-bar-blockDividers" stroke-width="2" fill="none" d="M819.5831717987694,56L823.5831717987694,64.5L819.5831717987694,73" stroke="#rgba(0,0,0,0)"></path></g><g><text class="force-bar-labels" font-size="12px" y="98" fill="rgb(117, 72, 94)" stroke="none" x="222.42518748887562" text-anchor="middle">Mineralogy = 3</text><text class="force-bar-labels" font-size="12px" y="98" fill="rgb(117, 72, 94)" stroke="none" x="320.6418546641686" text-anchor="middle">Ornamentation = 2</text><text class="force-bar-labels" font-size="12px" y="98" fill="rgb(117, 72, 94)" stroke="none" x="416.6251882518151" text-anchor="middle">Body size = 4</text><text class="force-bar-labels" font-size="12px" y="98" fill="rgb(117, 72, 94)" stroke="none" x="509.2585195506432" text-anchor="middle">Reproduction = 1</text><text class="force-bar-labels" font-size="12px" y="98" fill="rgb(117, 72, 94)" stroke="none" x="592.958518406234" text-anchor="middle">Motility = 5</text><text class="force-bar-labels" font-size="12px" y="98" fill="rgb(117, 72, 94)" stroke="none" x="674.4251836741784" text-anchor="middle"># of species = 1</text><text class="force-bar-labels" font-size="12px" y="98" fill="rgb(117, 72, 94)" stroke="none" x="771.2791773550041" text-anchor="middle">Physiology = 1</text></g><text x="492.5" y="28" text-anchor="middle" font-size="12" fill="#000" opacity="0.5">base value</text><line x1="819.5831717987694" x2="819.5831717987694" y1="50" y2="56" stroke="#F2F2F2" stroke-width="1" opacity="1"></line><text x="819.5831717987694" y="45" color="#fff" text-anchor="middle" font-weight="bold" stroke="#fff" stroke-width="6" opacity="1">0.83</text><text x="819.5831717987694" y="45" text-anchor="middle" font-weight="bold" fill="#000" opacity="1">0.83</text><text x="803.5831717987694" y="12" text-anchor="end" font-size="13" fill="rgb(117, 72, 94)" opacity="1">higher</text><text x="826.5831717987694" y="8" text-anchor="end" font-size="13" fill="rgb(117, 72, 94)" opacity="1">→</text><text x="819.5831717987694" y="28" text-anchor="middle" font-size="12" fill="#000" opacity="0.5">Extinction Probability</text><text x="812.5831717987694" y="14" text-anchor="start" font-size="13" fill="rgb(81, 163, 163)" opacity="1">←</text><text x="835.5831717987694" y="12" text-anchor="start" font-size="13" fill="rgb(81, 163, 163)" opacity="1">lower</text><text x="10" y="20" text-anchor="middle" font-size="12" stroke="#fff" fill="#fff" stroke-width="4" stroke-linejoin="round" opacity="0"></text><text x="10" y="20" text-anchor="middle" font-size="12" fill="#0f0" opacity="0"></text><linearGradient id="linear-grad-0" x1="0%" y1="0%" x2="0%" y2="100%"><stop offset="0%" stop-color="rgb(117, 72, 94)" stop-opacity="0.6"></stop><stop offset="100%" stop-color="rgb(117, 72, 94)" stop-opacity="0"></stop></linearGradient><linearGradient id="linear-backgrad-0" x1="0%" y1="0%" x2="0%" y2="100%"><stop offset="0%" stop-color="rgb(117, 72, 94)" stop-opacity="0.5"></stop><stop offset="100%" stop-color="rgb(117, 72, 94)" stop-opacity="0"></stop></linearGradient><linearGradient id="linear-grad-1" x1="0%" y1="0%" x2="0%" y2="100%"><stop offset="0%" stop-color="rgb(81, 163, 163)" stop-opacity="0.6"></stop><stop offset="100%" stop-color="rgb(81, 163, 163)" stop-opacity="0"></stop></linearGradient><linearGradient id="linear-backgrad-1" x1="0%" y1="0%" x2="0%" y2="100%"><stop offset="0%" stop-color="rgb(81, 163, 163)" stop-opacity="0.5"></stop><stop offset="100%" stop-color="rgb(81, 163, 163)" stop-opacity="0"></stop></linearGradient></svg>